<svg width="81" height="65" viewBox="0 0 81 65" fill="none" xmlns="http://www.w3.org/2000/svg"><g filter="url(#LoadIconWithoutCarrier_svg__a)"><ellipse rx="36" ry="2.5" transform="matrix(-1 0 0 1 40 58.5)" fill="#ABABAB"/></g><path fill="#A27B3C" d="M57 1H24v29h33z"/><path fill="#E6B787" d="M57 0H24v29h33z"/><path fill="#fff" d="M28 22h7v3h-7z"/><path d="M24 0h33v29L24 0z" fill="#F5CA9F"/><path d="M24 0h33L40.725 15 24 0z" fill="#FFDAB6"/><path d="M44 0h-6v9l3-2.5L44 9V0z" fill="#00258B"/><path fill="#A27B3C" d="M57 30H24v28h33z"/><path fill="#E6B787" d="M73 30H41v28h32z"/><path d="M41 30h32v28L41 30z" fill="#F5CA9F"/><path d="M41 30h32L57.5 44.5 41 30z" fill="#FFDAB6"/><path fill="#E6B787" d="M40 30H8v28h32z"/><path fill="#fff" d="M12 51h7v3h-7z"/><path d="M24 30h16v28L23.5 44l.5-14z" fill="#F5CA9F"/><path d="M8 30h32L23.484 44 8 30z" fill="#FFDAB6"/><path d="M60 30h-6v9l3-2.5 3 2.5v-9zm-33 0h-3v5.778L27 38v-8zm-6 0h3v5.778L21 38v-8z" fill="#00258B"/><defs><filter id="LoadIconWithoutCarrier_svg__a" x="0" y="52" width="80" height="13" filterUnits="userSpaceOnUse" color-interpolation-filters="sRGB"><feFlood flood-opacity="0" result="BackgroundImageFix"/><feBlend in="SourceGraphic" in2="BackgroundImageFix" result="shape"/><feGaussianBlur stdDeviation="2" result="effect1_foregroundBlur_3190_2352"/></filter></defs></svg>