<svg width="123" height="25" viewBox="0 0 123 25" fill="none" xmlns="http://www.w3.org/2000/svg"><circle r="2" transform="matrix(1 0 0 -1 58 23)" fill="#E9E9E9"/><circle r="2" transform="matrix(1 0 0 -1 2 23)" fill="#E9E9E9"/><circle r="2" transform="matrix(1 0 0 -1 65 23)" fill="#E9E9E9"/><circle r="2" transform="matrix(1 0 0 -1 9 23)" fill="#E9E9E9"/><circle r="2" transform="matrix(1 0 0 -1 72 23)" fill="#E9E9E9"/><circle r="2" transform="matrix(1 0 0 -1 16 23)" fill="#E9E9E9"/><circle r="2" transform="matrix(1 0 0 -1 79 23)" fill="#E9E9E9"/><circle r="2" transform="matrix(1 0 0 -1 23 23)" fill="#E9E9E9"/><circle r="2" transform="matrix(1 0 0 -1 86 23)" fill="#E9E9E9"/><circle r="2" transform="matrix(1 0 0 -1 30 23)" fill="#E9E9E9"/><circle r="2" transform="matrix(1 0 0 -1 58 16)" fill="#E9E9E9"/><circle r="2" transform="matrix(1 0 0 -1 2 16)" fill="#E9E9E9"/><circle r="2" transform="matrix(1 0 0 -1 65 16)" fill="#E9E9E9"/><circle r="2" transform="matrix(1 0 0 -1 9 16)" fill="#E9E9E9"/><circle r="2" transform="matrix(1 0 0 -1 72 16)" fill="#E9E9E9"/><circle r="2" transform="matrix(1 0 0 -1 16 16)" fill="#E9E9E9"/><circle r="2" transform="matrix(1 0 0 -1 93 23)" fill="#E9E9E9"/><circle r="2" transform="matrix(1 0 0 -1 37 23)" fill="#E9E9E9"/><circle r="2" transform="matrix(1 0 0 -1 44 23)" fill="#E9E9E9"/><circle r="2" transform="matrix(1 0 0 -1 107 23)" fill="#E9E9E9"/><circle r="2" transform="matrix(1 0 0 -1 51 23)" fill="#E9E9E9"/><circle r="2" transform="matrix(1 0 0 -1 58 9)" fill="#E9E9E9"/><circle r="2" transform="matrix(1 0 0 -1 2 9)" fill="#E9E9E9"/><circle r="2" transform="matrix(1 0 0 -1 65 9)" fill="#E9E9E9"/><circle r="2" transform="matrix(1 0 0 -1 16 9)" fill="#E9E9E9"/><circle r="2" transform="matrix(1 0 0 -1 79 16)" fill="#E9E9E9"/><circle r="2" transform="matrix(1 0 0 -1 23 16)" fill="#E9E9E9"/><circle r="2" transform="matrix(1 0 0 -1 86 16)" fill="#E9E9E9"/><circle r="2" transform="matrix(1 0 0 -1 30 16)" fill="#E9E9E9"/><circle r="2" transform="matrix(1 0 0 -1 93 16)" fill="#E9E9E9"/><circle r="2" transform="matrix(1 0 0 -1 37 16)" fill="#E9E9E9"/><circle r="2" transform="matrix(1 0 0 -1 100 16)" fill="#E9E9E9"/><circle r="2" transform="matrix(1 0 0 -1 58 2)" fill="#E9E9E9"/><circle r="2" transform="matrix(1 0 0 -1 2 2)" fill="#E9E9E9"/><circle r="2" transform="matrix(1 0 0 -1 65 2)" fill="#E9E9E9"/><circle r="2" transform="matrix(1 0 0 -1 9 2)" fill="#E9E9E9"/><circle r="2" transform="matrix(1 0 0 -1 72 2)" fill="#E9E9E9"/><circle r="2" transform="matrix(1 0 0 -1 51 16)" fill="#E9E9E9"/><circle r="2" transform="matrix(1 0 0 -1 79 9)" fill="#E9E9E9"/><circle r="2" transform="matrix(1 0 0 -1 23 9)" fill="#E9E9E9"/><circle r="2" transform="matrix(1 0 0 -1 86 9)" fill="#E9E9E9"/><circle r="2" transform="matrix(1 0 0 -1 30 9)" fill="#E9E9E9"/><circle r="2" transform="matrix(1 0 0 -1 37 9)" fill="#E9E9E9"/><circle r="2" transform="matrix(1 0 0 -1 100 9)" fill="#E9E9E9"/><circle r="2" transform="matrix(1 0 0 -1 114 9)" fill="#E9E9E9"/><circle r="2" transform="matrix(1 0 0 -1 44 9)" fill="#E9E9E9"/><circle r="2" transform="matrix(1 0 0 -1 107 9)" fill="#E9E9E9"/><circle r="2" transform="matrix(1 0 0 -1 121 9)" fill="#E9E9E9"/><circle r="2" transform="matrix(1 0 0 -1 51 9)" fill="#E9E9E9"/><circle r="2" transform="matrix(1 0 0 -1 79 2)" fill="#E9E9E9"/><circle r="2" transform="matrix(1 0 0 -1 23 2)" fill="#E9E9E9"/><circle r="2" transform="matrix(1 0 0 -1 86 2)" fill="#E9E9E9"/><circle r="2" transform="matrix(1 0 0 -1 30 2)" fill="#E9E9E9"/><circle r="2" transform="matrix(1 0 0 -1 93 2)" fill="#E9E9E9"/><circle r="2" transform="matrix(1 0 0 -1 37 2)" fill="#E9E9E9"/><circle r="2" transform="matrix(1 0 0 -1 100 2)" fill="#E9E9E9"/><circle r="2" transform="matrix(1 0 0 -1 114 2)" fill="#E9E9E9"/><circle r="2" transform="matrix(1 0 0 -1 44 2)" fill="#E9E9E9"/><circle r="2" transform="matrix(1 0 0 -1 107 2)" fill="#E9E9E9"/><circle r="2" transform="matrix(1 0 0 -1 121 2)" fill="#E9E9E9"/><circle r="2" transform="matrix(1 0 0 -1 51 2)" fill="#E9E9E9"/></svg>