       <svg xmlns="http://www.w3.org/2000/svg" width="39" height="49" viewBox="0 0 39 49" fill="none">
  <path fill-rule="evenodd" clip-rule="evenodd" d="M17.1025 20.9598C17.1396 22.2322 16.8878 23.4964 16.3662 24.6576C16.2127 24.9045 16.0465 25.1423 15.8664 25.3697C16.0603 25.3327 16.2484 25.2704 16.4262 25.1827C16.8795 24.8915 17.2313 24.4667 17.4328 23.9671C17.6344 23.4674 17.6759 22.9174 17.5514 22.3932C17.4719 21.8961 17.3195 21.4135 17.099 20.9609M30.6392 17.4674H29.7355C30.1013 18.9112 30.7338 20.2754 31.6005 21.4872C32.2618 22.5167 32.9566 23.5208 33.5498 24.5906C34.8801 26.8952 35.719 29.4501 36.0139 32.0947C36.4513 36.5969 34.0842 40.2613 30.0102 42.2244C27.4376 43.4593 25.1109 44.0606 23.0831 45.5448C21.8684 46.4936 20.84 47.6593 20.0501 48.9829C20.2659 44.1864 24.8743 43.187 28.5306 41.405C32.7304 39.3553 34.5609 36.0256 34.0438 31.6273C33.4402 27.8199 31.9075 25.2727 30.1175 22.332C29.2415 21.0175 28.5017 19.6164 27.912 18.1506C27.6417 17.3907 27.485 16.595 27.4469 15.7893C22.1863 14.2197 16.582 14.2197 11.3215 15.7893C11.2835 16.5948 11.1275 17.3904 10.8587 18.1506C10.2652 19.6152 9.5259 21.0165 8.65202 22.3332C6.86083 25.2739 5.32816 27.8164 4.72571 31.6284C4.20866 36.028 6.04025 39.3553 10.2389 41.4062C13.8952 43.1881 18.5036 44.1876 18.7171 48.9841C17.9279 47.6607 16.9007 46.4947 15.6875 45.5448C13.6551 44.0606 11.3238 43.4547 8.75589 42.2244C4.68647 40.2624 2.31013 36.5969 2.75331 32.0947C3.05223 29.4518 3.89012 26.8977 5.21505 24.5906C5.80827 23.5219 6.50074 22.5167 7.16551 21.4872C8.03341 20.2754 8.66587 18.9124 9.03057 17.4674H8.13036C7.81067 18.4715 7.35825 19.4271 6.7835 20.31C4.52258 23.9963 1.92812 27.2105 1.74 31.8258C1.72615 32.8703 1.79309 33.9148 1.94081 34.95C1.327 34.0803 0.940201 33.0711 0.815547 32.0139C0.658126 30.7883 0.732908 29.5441 1.03598 28.3461C1.70884 25.5439 3.2969 23.133 4.653 20.6493C5.38241 19.5162 5.89325 18.2565 6.15912 16.9353C6.28608 16.0571 5.82096 15.1996 5.01654 14.8256C5.3674 14.5948 5.77018 14.4563 6.18797 14.424C6.77658 14.3882 7.34671 14.6329 7.72757 15.083C7.52325 13.7483 7.24194 12.4266 6.88506 11.1244C6.62308 10.1353 6.308 9.1612 5.94215 8.20674C5.69978 7.56274 5.47588 7.01915 5.32354 6.66137H5.16312C4.40486 6.711 3.74817 6.14086 3.68931 5.38261C3.80587 4.5678 4.56067 4.00113 5.37663 4.11769C5.69729 4.16356 5.9943 4.31261 6.22273 4.54229C6.45115 4.77196 6.59858 5.06978 6.6427 5.39069C6.63231 5.82233 6.39687 6.21819 6.02178 6.43286C7.18158 8.03526 8.51414 9.50522 9.99542 10.8162C11.632 10.0822 12.583 8.35216 12.3267 6.57597C11.6146 6.56673 11.0284 6.01276 10.9799 5.30182C11.0964 4.48701 11.8512 3.92034 12.6672 4.0369C12.9879 4.08278 13.2849 4.23182 13.5133 4.4615C13.7417 4.69117 13.8892 4.98899 13.9333 5.3099C13.8963 5.93197 13.4347 6.44671 12.8207 6.54942C13.65 7.8733 14.9329 8.85008 16.4296 9.29738C16.0759 10.0299 15.6006 10.6972 15.0239 11.2709C13.7175 11.5595 12.4502 11.998 11.2453 12.5797C10.6059 12.6016 9.96772 12.5393 9.34449 12.395C9.20484 12.3466 9.05827 12.3212 8.91054 12.3177C9.30525 12.964 9.61456 13.6588 9.82807 14.3847C14.5969 12.4551 24.138 12.4608 28.9426 14.3997C29.157 13.6696 29.4585 12.9678 29.8405 12.3096C29.6928 12.3119 29.5462 12.3385 29.4066 12.387C28.7837 12.5313 28.1447 12.5934 27.5057 12.5716C26.2996 11.9902 25.03 11.551 23.7225 11.2628C23.1464 10.6886 22.6712 10.0214 22.3168 9.2893C23.8143 8.84218 25.0979 7.86542 25.928 6.54134C25.6305 6.49199 25.3587 6.34281 25.1573 6.11834C24.9559 5.89388 24.837 5.60753 24.8201 5.30644C24.9366 4.49047 25.6926 3.9238 26.5086 4.04037C27.1676 4.135 27.6858 4.65436 27.7758 5.31451C27.7262 6.0243 27.141 6.57828 26.4289 6.58866C26.1727 8.3637 27.1237 10.0937 28.7603 10.8289C30.2398 9.50956 31.5788 8.04061 32.7558 6.44555C32.571 6.34027 32.4166 6.18896 32.3076 6.00634C32.1986 5.82372 32.1387 5.616 32.1337 5.40338C32.2503 4.58857 33.0051 4.0219 33.8211 4.13847C34.1417 4.18434 34.4387 4.33338 34.6672 4.56306C34.8956 4.79274 35.043 5.09055 35.0871 5.41146C35.0317 6.17318 34.3716 6.74793 33.6099 6.69715H33.4402C33.2867 7.05377 33.064 7.59506 32.8216 8.24252C32.4605 9.198 32.1489 10.1714 31.8879 11.159C31.4977 12.4954 31.1818 13.8524 30.9415 15.2238C31.3132 14.6883 31.9364 14.3836 32.5873 14.4194C33.0051 14.4517 33.409 14.5902 33.7587 14.821C32.9532 15.1949 32.4892 16.0524 32.6162 16.9307C32.8811 18.2521 33.392 19.512 34.1223 20.6447C35.4807 23.1307 37.063 25.5405 37.7416 28.3415C38.0449 29.5406 38.1204 30.7859 37.9644 32.0128C37.8386 33.0697 37.4519 34.0787 36.8391 34.9488C36.988 33.9148 37.0549 32.8703 37.0422 31.8246C36.8495 27.207 34.2573 23.9951 31.9987 20.3088C31.4228 19.426 30.9679 18.47 30.6461 17.4662M19.7316 3.45177C20.3536 3.34212 20.8188 2.81815 20.8545 2.188C20.7345 1.35242 19.9612 0.773053 19.1257 0.891928C18.454 0.98772 17.9254 1.51631 17.8296 2.188C17.8688 2.84816 18.3709 3.38944 19.0264 3.47716C18.5662 6.20903 17.4773 8.79656 15.8456 11.0355L15.8341 11.062H22.9204L22.9112 11.0355C21.2759 8.78991 20.1864 6.19412 19.7293 3.45407M24.295 36.021C23.1882 37.9507 22.2418 37.6691 21.2816 37.2421C20.7008 36.939 20.056 36.7791 19.401 36.7757C18.7459 36.7723 18.0995 36.9254 17.5157 37.2225C16.5416 37.661 15.586 37.9865 14.4607 36.0222C14.2551 36.3045 14.1534 36.6492 14.1728 36.9979C14.1921 37.3466 14.3314 37.6779 14.5669 37.9357C15.8964 39.0541 18.2047 39.3472 19.1637 41.6335C19.2099 42.1748 19.5481 42.1748 19.5942 41.6335C20.5568 39.353 22.865 39.061 24.1899 37.9357C24.6758 37.4037 24.7208 36.6039 24.295 36.021ZM16.1123 19.8599C16.3939 21.4768 16.1319 23.1411 15.3678 24.5929C14.8866 25.3454 14.3418 26.0517 13.8536 26.7442C11.9528 29.4437 12.0428 32.1974 13.4543 34.141C14.3941 33.2116 15.5253 32.4984 16.7689 32.0509C17.2918 31.8339 17.8296 31.6515 18.3766 31.505C18.7863 30.0946 17.3322 27.8614 16.2865 27.4217C15.8306 27.2601 15.3586 27.147 14.8785 27.087C14.8785 27.087 14.9477 26.8204 15.9368 26.1245C16.6143 25.7251 17.4453 25.6859 18.1574 26.0183C18.5301 26.1602 18.9225 26.241 19.3219 26.2583H19.4246C19.8227 26.2445 20.2151 26.1637 20.5868 26.0183C20.9384 25.8556 21.3242 25.7802 21.7112 25.7987C22.0982 25.8172 22.4751 25.929 22.8096 26.1245C23.8033 26.8158 23.8679 27.087 23.8679 27.087C23.3878 27.147 22.9158 27.2601 22.4599 27.4217C21.4062 27.8602 19.9532 30.0946 20.3698 31.505C20.918 31.6481 21.4547 31.8304 21.9775 32.0509C23.2186 32.5036 24.3487 33.2162 25.2921 34.141C26.7059 32.1963 26.7936 29.4437 24.8939 26.7442C24.4127 26.0517 23.8668 25.3454 23.3797 24.5929C22.6146 23.1411 22.3526 21.4768 22.6353 19.8599C23.7927 19.5368 24.9944 19.4016 26.1946 19.4594C27.0325 19.4583 27.8231 19.8472 28.3332 20.5108C28.3332 20.5108 27.1341 20.617 26.8029 21.1548C26.4716 21.6926 26.2258 21.5807 25.8403 21.5807C22.8673 21.5807 24.6181 20.8894 23.3878 20.295C23.3555 20.8986 23.3821 21.5034 23.4698 22.1012C23.9047 23.7731 24.7528 25.309 25.9361 26.5676C28.2386 29.5106 29.3662 34.4664 25.673 37.0447C24.2361 34.9673 21.9879 32.771 19.4557 32.7479H19.2953C16.7643 32.7699 14.5149 34.9662 13.0781 37.0447C9.38027 34.4722 10.5055 29.5095 12.8149 26.5676C13.9994 25.3094 14.8483 23.7735 15.2836 22.1012C15.369 21.5034 15.3967 20.8986 15.3655 20.295C14.1341 20.894 15.8849 21.5807 12.9119 21.5807C12.5276 21.5807 12.2783 21.6869 11.9493 21.1548C11.6216 20.6228 10.4167 20.5108 10.4167 20.5108C10.6691 20.1838 10.9931 19.919 11.3638 19.7367C11.7346 19.5545 12.1421 19.4596 12.5553 19.4594C13.7555 19.4005 14.957 19.5356 16.1146 19.8599M10.5194 29.274C9.75536 31.9805 9.02249 34.9015 12.8172 37.7961C13.0458 37.9703 13.3158 38.1527 13.6101 38.335C14.8035 38.9121 15.9611 39.5619 17.0736 40.282C17.7142 40.7273 18.2177 41.3425 18.5277 42.0583C18.8376 42.7742 18.9416 43.5624 18.8279 44.3342C18.761 44.086 18.6629 43.8471 18.5336 43.6255C17.9152 42.4934 17.0497 41.5151 16.0015 40.7633C14.972 40.1735 13.9113 39.6369 12.8265 39.1556C9.26717 37.3033 7.67217 34.3753 8.76166 30.2331C9.49914 27.4309 10.337 25.7955 8.79052 23.1872C11.8455 23.9189 11.1218 27.1412 10.5217 29.2833M8.44428 24.2317C8.44428 24.2317 8.48814 24.3586 8.53315 24.5422C8.70049 25.2912 8.71319 26.0656 8.56892 26.8192C8.26308 28.5666 7.4829 30.1258 7.3294 31.932C7.08914 33.7442 7.51305 35.582 8.52276 37.1059C9.27197 38.0934 10.2179 38.9147 11.3007 39.518C12.4145 40.1435 13.5997 40.5821 14.7481 41.203C16.5762 42.1944 19.0022 43.9694 18.8083 46.3977C18.1643 44.8639 16.365 43.4813 14.8785 42.6457C13.5755 41.9128 12.0359 41.3069 10.6336 40.596C9.52694 40.0978 8.53891 39.3699 7.73519 38.4605C6.93148 37.5512 6.33049 36.4812 5.97215 35.3216C5.5418 33.3008 5.67191 31.2009 6.3484 29.2487C6.83313 27.4955 7.5383 25.8105 8.44659 24.234M17.7753 16.7011C16.8647 16.0571 14.905 16.4887 14.905 16.4887C15.3286 16.5995 15.7441 16.7415 16.1457 16.9146C16.8512 17.2698 17.4947 17.7367 18.0512 18.2972C18.8406 18.8743 19.9116 18.8743 20.701 18.2972C21.255 17.7352 21.899 17.2677 22.6053 16.9146C23.0081 16.7415 23.4224 16.5983 23.846 16.4887C23.846 16.4887 21.8875 16.0628 20.9757 16.7011C19.705 17.6013 19.0622 17.6013 17.7753 16.7011ZM28.227 29.2683C28.9911 31.9747 29.7239 34.8958 25.928 37.7903C25.6995 37.9646 25.4295 38.1469 25.1375 38.3293C23.9434 38.9053 22.7867 39.5556 21.674 40.2763C21.0335 40.7216 20.5299 41.3368 20.2198 42.0526C19.9097 42.7684 19.8053 43.5565 19.9185 44.3284C19.9855 44.0802 20.0859 43.8413 20.2151 43.6198C20.8305 42.4836 21.6959 41.5021 22.7461 40.7495C23.7768 40.1597 24.8362 39.623 25.9211 39.1418C29.4804 37.2894 31.0777 34.3614 29.9859 30.2193C29.2484 27.4171 28.4117 25.7817 29.9594 23.1734C26.8929 23.9051 27.6269 27.1274 28.227 29.2683ZM30.3172 24.2259C30.3172 24.2259 30.2733 24.3529 30.2283 24.5364C30.0618 25.2851 30.0497 26.0599 30.1925 26.8135C30.496 28.562 31.2774 30.1235 31.432 31.9262C31.6723 33.7384 31.2484 35.5763 30.2387 37.1001C29.4892 38.0873 28.5433 38.9086 27.4607 39.5122C26.3447 40.1378 25.1617 40.5763 24.0134 41.1973C22.1806 42.1886 19.757 43.9637 19.9532 46.3919C20.5972 44.8581 22.3953 43.4755 23.8806 42.6399C25.1836 41.907 26.7255 41.3011 28.1266 40.5902C29.2339 40.0911 30.2222 39.3622 31.0261 38.4519C31.83 37.5415 32.431 36.4705 32.7893 35.3101C33.2185 33.2892 33.0884 31.1896 32.413 29.2371C31.9271 27.4842 31.2209 25.8 30.3114 24.2248M21.6566 20.9598C21.4362 21.4122 21.285 21.8946 21.2065 22.392C20.9549 23.4665 21.405 24.5837 22.3318 25.1815C22.5095 25.2681 22.6977 25.3316 22.8916 25.3685C22.7105 25.1414 22.5432 24.9036 22.3907 24.6564C21.8714 23.4945 21.6198 22.2308 21.6543 20.9586" fill="#2355FC"/>
</svg>